<svg width="40" height="40" viewBox="0 0 40 40" fill="none" xmlns="http://www.w3.org/2000/svg">
<rect width="40" height="40" rx="10" fill="#BE3455"/>
<path d="M21.4695 19.9505L28.7595 12.6605C28.9234 12.4692 29.009 12.2231 28.9993 11.9714C28.9895 11.7197 28.8852 11.481 28.7071 11.3029C28.529 11.1248 28.2903 11.0205 28.0386 11.0107C27.7869 11.001 27.5408 11.0866 27.3495 11.2505L20.0595 18.5405L12.7695 11.2405C12.5782 11.0766 12.3322 10.991 12.0805 11.0007C11.8288 11.0105 11.5901 11.1148 11.412 11.2929C11.2339 11.471 11.1296 11.7097 11.1198 11.9614C11.1101 12.2131 11.1957 12.4592 11.3595 12.6505L18.6495 19.9505L11.3495 27.2405C11.2449 27.3301 11.1598 27.4404 11.0998 27.5645C11.0398 27.6886 11.0061 27.8237 11.0007 27.9614C10.9954 28.0991 11.0186 28.2365 11.0689 28.3648C11.1192 28.4931 11.1954 28.6097 11.2929 28.7071C11.3903 28.8046 11.5069 28.8808 11.6352 28.9311C11.7635 28.9814 11.9009 29.0046 12.0386 28.9993C12.1763 28.9939 12.3114 28.9602 12.4355 28.9002C12.5596 28.8402 12.6699 28.7551 12.7595 28.6505L20.0595 21.3605L27.3495 28.6505C27.5408 28.8143 27.7869 28.8999 28.0386 28.8902C28.2903 28.8804 28.529 28.7761 28.7071 28.598C28.8852 28.4199 28.9895 28.1812 28.9993 27.9295C29.009 27.6778 28.9234 27.4318 28.7595 27.2405L21.4695 19.9505Z" fill="#F9EBEE"/>
</svg>
