<svg width="114" height="58" viewBox="0 0 114 58" fill="none" xmlns="http://www.w3.org/2000/svg">
<g clip-path="url(#clip0_88_153)">
<path d="M15.5297 1.3137C15.7447 1.99937 16.32 2.65598 16.9824 2.96395L17.3311 3.12665L16.994 3.29516C16.3607 3.60313 15.7157 4.42244 15.5995 5.07906C15.5588 5.30567 15.4542 5.38702 15.4542 5.18946C15.4542 5.02095 15.0765 4.30623 14.8324 4.02731C14.5884 3.73678 14.0247 3.35327 13.7691 3.29516C13.6703 3.27192 13.5948 3.23705 13.6006 3.21962C13.6006 3.19638 13.7516 3.10922 13.9318 3.02206C14.5535 2.73152 15.0997 2.05747 15.3089 1.33113C15.3612 1.151 15.4135 0.999919 15.4193 0.999919C15.4251 0.999919 15.4774 1.13938 15.5297 1.3137Z" fill="#BE3458"/>
<path d="M26.0238 2.80066C26.5119 4.6601 27.5172 6.19994 28.8885 7.17614C29.3301 7.49573 30.1785 7.92573 30.6317 8.06519C30.8177 8.12329 30.9688 8.1814 30.9688 8.19883C30.9688 8.21626 30.7479 8.32086 30.4865 8.43126C28.4062 9.28544 26.8838 11.1565 26.355 13.5098L26.2156 14.1025L26.1517 13.8411C25.896 12.8532 25.373 11.7085 24.8559 11.0112C24.0424 9.90719 22.8802 9.02977 21.6716 8.61139C21.4624 8.53586 21.2764 8.46032 21.2474 8.43707C21.2241 8.41964 21.4101 8.32086 21.66 8.21626C23.7634 7.35628 25.3149 5.43292 25.8495 3.00404L25.9541 2.53918L26.0238 2.80066Z" fill="#BE3458"/>
<path d="M42.7996 12.2728C44.2116 12.482 45.4202 13.5919 46.0245 15.2421C46.3267 16.073 46.4313 16.6309 46.4661 17.6768C46.4952 18.5077 46.4836 18.7227 46.3732 19.2864C46.2511 19.9139 45.978 20.7914 45.7398 21.326L45.6236 21.5816L45.827 22.1685C45.9315 22.4939 46.0884 23.075 46.164 23.4585C46.7625 26.4278 46.2569 29.4435 44.6532 32.4826C42.6892 36.1956 38.1219 41.1464 31.55 46.6666C29.063 48.7642 27.0176 50.3912 22.9501 53.529C21.817 54.4065 20.3876 55.5163 19.7832 55.9928C18.5688 56.9516 18.4235 57.0445 18.2318 56.9864C17.8076 56.8586 17.6972 56.3821 18.011 56.0858C18.226 55.8824 20.0215 54.4762 23.0954 52.1054C29.9172 46.8409 33.6593 43.6508 37.3026 39.9958C42.48 34.8069 44.688 31.332 45.2982 27.4098C45.4144 26.6602 45.4318 25.01 45.3272 24.3882C45.2226 23.7548 45.0251 22.9065 44.9844 22.9065C44.9612 22.9065 44.8101 23.1389 44.6474 23.4178C44.4789 23.6967 44.0837 24.2894 43.7641 24.7369C41.8815 27.3807 39.2376 29.9316 36.4891 31.762C34.4321 33.1276 32.7005 33.9294 30.9689 34.3188C30.0043 34.5279 29.3826 34.5977 28.296 34.5977C25.7451 34.5977 23.1535 33.9352 20.3876 32.5755C19.853 32.314 19.3126 32.0061 19.1847 31.8899C18.7896 31.5296 18.5978 30.873 18.7315 30.3035C18.7722 30.1176 18.7722 30.1176 17.796 30.7277C15.2044 32.3605 12.6941 34.0805 9.75972 36.2479C5.00073 39.7576 0.770512 42.7211 0.514839 42.7211C0.352139 42.7211 0.0790329 42.57 0.032547 42.4596C-0.0255585 42.3027 -0.00231552 42.0005 0.0732231 41.9076C0.113899 41.8553 0.479977 41.5822 0.89835 41.2974C3.11805 39.7808 6.32558 37.4914 8.83 35.6378C9.19608 35.3705 9.83526 34.894 10.2536 34.586C12.5954 32.8544 15.338 31.0183 18.563 29.031C19.2312 28.6126 19.9285 28.1826 20.1086 28.0722C20.2946 27.956 20.6723 27.6074 21.0151 27.2355C22.0262 26.1256 24.4144 23.8246 26.2913 22.1453C29.9055 18.9203 33.6593 16.1718 36.983 14.324C39.1911 13.0979 40.789 12.4181 41.7943 12.2786C42.294 12.2089 42.3638 12.2089 42.7996 12.2728ZM44.1244 19.054C43.8687 19.6408 43.4329 20.4776 43.0901 21.0412C41.2771 24.0221 39.0749 26.2825 35.1643 29.1763C34.5309 29.6469 34.374 29.8154 34.6413 29.7283C34.9144 29.6469 36.3729 28.8857 37.0411 28.4848C39.3828 27.0728 41.5328 25.1087 42.7938 23.2261C43.6073 22.0116 44.1767 20.5938 44.3394 19.391C44.4382 18.6472 44.3568 18.5252 44.1244 19.054Z" fill="#BE3458"/>
<path d="M14.6293 13.452C14.9314 14.4049 15.6868 15.3172 16.5003 15.7065C16.7386 15.8227 17 15.9448 17.0756 15.9738C17.2034 16.0261 17.186 16.0436 16.785 16.2353C15.774 16.7176 15.0767 17.5718 14.7222 18.7746L14.6002 19.2046L14.4724 18.8036C14.2458 18.118 13.9552 17.6299 13.4729 17.1476C13.1127 16.7815 12.9267 16.6479 12.456 16.4154L11.8808 16.1365L12.2933 15.9448C13.2986 15.4683 14.1005 14.4688 14.3562 13.359C14.4026 13.1789 14.4491 13.0278 14.4666 13.0278C14.484 13.0278 14.5537 13.2195 14.6293 13.452Z" fill="#BE3458"/>
<path d="M54.9857 56.914C54.5257 56.914 54.2497 56.592 54.1577 55.948C55.4151 48.956 57.1324 40.722 59.3097 31.246C61.4564 22.0153 62.8824 15.836 63.5877 12.708C63.7104 12.4013 63.8944 12.1407 64.1397 11.926C64.4157 11.7113 64.6764 11.604 64.9217 11.604C65.4124 11.604 65.6577 11.88 65.6577 12.432C64.9217 16.6027 64.0937 20.574 63.1737 24.346C62.5604 26.9527 61.6711 30.8627 60.5057 36.076L70.1657 25.266C73.9991 21.034 77.7557 16.7407 81.4357 12.386C81.7424 12.1407 82.0644 12.018 82.4017 12.018C82.8924 12.018 83.1377 12.2787 83.1377 12.8C83.1377 13.1373 83.0151 13.444 82.7697 13.72C80.7151 16.1733 77.2344 20.1753 72.3277 25.726C67.2984 31.3993 64.1857 34.9413 62.9897 36.352C63.2657 39.112 63.8484 41.7033 64.7377 44.126C65.6271 46.5487 66.7157 48.6187 68.0037 50.336C69.2917 52.0227 70.6411 53.234 72.0517 53.97C73.1251 54.5833 74.2904 54.89 75.5477 54.89C77.3264 54.89 78.6757 54.2153 79.5957 52.866C79.9024 52.6207 80.1784 52.498 80.4237 52.498C81.0371 52.498 81.3437 52.774 81.3437 53.326C81.3437 53.6633 81.1291 54.0927 80.6997 54.614C80.2704 55.1047 79.7337 55.5647 79.0897 55.994C78.4764 56.3927 77.9244 56.6227 77.4337 56.684C76.6057 56.8373 75.8697 56.914 75.2257 56.914C73.9377 56.914 72.7111 56.6533 71.5457 56.132C70.3804 55.6107 69.2457 54.7673 68.1417 53.602C66.4244 51.8847 64.9677 49.6307 63.7717 46.84C62.5757 44.0493 61.7017 41.1207 61.1497 38.054C60.9964 38.2073 60.7051 38.4987 60.2757 38.928C59.8771 39.3573 59.6011 39.6947 59.4477 39.94C57.8531 47.0547 56.7951 52.2833 56.2737 55.626C56.2124 55.994 56.0437 56.3007 55.7677 56.546C55.5224 56.7913 55.2617 56.914 54.9857 56.914ZM91.3387 58.248C90.8173 58.248 90.526 57.926 90.4647 57.282C90.894 53.7247 92.1053 46.9933 94.0987 37.088C96.1227 27.152 97.6867 19.6847 98.7907 14.686C96.2147 14.594 93.9453 14.548 91.9827 14.548C90.296 14.548 88.7167 14.594 87.2447 14.686C86.6007 14.594 86.2787 14.3333 86.2787 13.904C86.2787 13.0453 87.0607 12.57 88.6247 12.478C88.9007 12.4473 89.33 12.432 89.9127 12.432L99.3427 12.616C99.772 11.328 100.355 10.684 101.091 10.684C101.704 10.684 102.011 11.0673 102.011 11.834C102.011 11.9873 101.98 12.248 101.919 12.616C103.391 12.524 105.629 12.4013 108.635 12.248C111.671 12.0947 113.71 12.018 114.753 12.018C115.274 12.1713 115.535 12.432 115.535 12.8C115.535 13.72 114.783 14.18 113.281 14.18C112.054 14.18 109.57 14.272 105.829 14.456C103.621 14.6093 102.011 14.686 100.999 14.686C100.048 19.378 99.0973 23.8707 98.1467 28.164C96.9507 33.6227 95.9387 38.3913 95.1107 42.47C94.3133 46.5487 93.47 51.3787 92.5807 56.96C92.4887 57.328 92.32 57.6347 92.0747 57.88C91.8293 58.1253 91.584 58.248 91.3387 58.248Z" fill="#BE3458"/>
</g>
<defs>
<clipPath id="clip0_88_153">
<rect width="113.48" height="58" fill="white"/>
</clipPath>
</defs>
</svg>
