<svg width="116" height="59" viewBox="0 0 116 59" fill="none" xmlns="http://www.w3.org/2000/svg">
<path d="M15.5297 1.31419C15.7447 1.99985 16.32 2.65647 16.9824 2.96444L17.3311 3.12714L16.994 3.29565C16.3607 3.60362 15.7157 4.42293 15.5995 5.07954C15.5588 5.30616 15.4542 5.38751 15.4542 5.18995C15.4542 5.02144 15.0765 4.30672 14.8324 4.0278C14.5884 3.73726 14.0247 3.35376 13.7691 3.29565C13.6703 3.27241 13.5948 3.23754 13.6006 3.22011C13.6006 3.19687 13.7516 3.1097 13.9318 3.02254C14.5535 2.73201 15.0997 2.05796 15.3089 1.33162C15.3612 1.15149 15.4135 1.00041 15.4193 1.00041C15.4251 1.00041 15.4774 1.13987 15.5297 1.31419Z" fill="white"/>
<path d="M26.0238 2.80066C26.5119 4.6601 27.5172 6.19994 28.8885 7.17614C29.3301 7.49573 30.1785 7.92573 30.6317 8.06519C30.8177 8.12329 30.9688 8.1814 30.9688 8.19883C30.9688 8.21626 30.7479 8.32086 30.4865 8.43126C28.4062 9.28544 26.8838 11.1565 26.355 13.5098L26.2156 14.1025L26.1517 13.8411C25.896 12.8532 25.373 11.7085 24.8559 11.0112C24.0424 9.90719 22.8802 9.02977 21.6716 8.61139C21.4624 8.53586 21.2764 8.46032 21.2474 8.43707C21.2241 8.41964 21.4101 8.32086 21.66 8.21626C23.7634 7.35628 25.3149 5.43292 25.8495 3.00404L25.9541 2.53918L26.0238 2.80066Z" fill="white"/>
<path d="M42.7993 12.2728C44.2113 12.482 45.42 13.5919 46.0243 15.2421C46.3264 16.073 46.431 16.6309 46.4659 17.6768C46.4949 18.5077 46.4833 18.7227 46.3729 19.2864C46.2509 19.9139 45.9778 20.7914 45.7395 21.326L45.6233 21.5816L45.8267 22.1685C45.9313 22.4939 46.0882 23.075 46.1637 23.4585C46.7622 26.4278 46.2567 29.4435 44.6529 32.4826C42.6889 36.1956 38.1217 41.1464 31.5497 46.6666C29.0627 48.7642 27.0174 50.3912 22.9498 53.529C21.8168 54.4065 20.3873 55.5163 19.783 55.9928C18.5686 56.9516 18.4233 57.0445 18.2315 56.9864C17.8073 56.8586 17.6969 56.3821 18.0107 56.0858C18.2257 55.8824 20.0212 54.4762 23.0951 52.1054C29.9169 46.8409 33.659 43.6508 37.3024 39.9958C42.4797 34.8069 44.6878 31.332 45.2979 27.4098C45.4141 26.6602 45.4316 25.01 45.327 24.3882C45.2224 23.7548 45.0248 22.9065 44.9842 22.9065C44.9609 22.9065 44.8098 23.1389 44.6471 23.4178C44.4786 23.6967 44.0835 24.2894 43.7639 24.7369C41.8812 27.3807 39.2373 29.9316 36.4889 31.762C34.4319 33.1276 32.7003 33.9294 30.9687 34.3188C30.0041 34.5279 29.3823 34.5977 28.2957 34.5977C25.7448 34.5977 23.1532 33.9352 20.3873 32.5755C19.8527 32.314 19.3123 32.0061 19.1845 31.8899C18.7894 31.5296 18.5976 30.873 18.7313 30.3035C18.7719 30.1176 18.7719 30.1176 17.7957 30.7277C15.2041 32.3605 12.6939 34.0805 9.75948 36.2479C5.00048 39.7576 0.770267 42.7211 0.514595 42.7211C0.351894 42.7211 0.0787888 42.57 0.0323029 42.4596C-0.0258026 42.3027 -0.00255966 42.0005 0.072979 41.9076C0.113655 41.8553 0.479733 41.5822 0.898106 41.2974C3.11781 39.7808 6.32533 37.4914 8.82976 35.6378C9.19584 35.3705 9.83501 34.894 10.2534 34.586C12.5951 32.8544 15.3378 31.0183 18.5627 29.031C19.231 28.6126 19.9283 28.1826 20.1084 28.0722C20.2943 27.956 20.672 27.6074 21.0149 27.2355C22.0259 26.1256 24.4142 23.8246 26.291 22.1453C29.9053 18.9203 33.659 16.1718 36.9828 14.324C39.1909 13.0979 40.7888 12.4181 41.7941 12.2786C42.2938 12.2089 42.3635 12.2089 42.7993 12.2728ZM44.1242 19.054C43.8685 19.6408 43.4327 20.4776 43.0899 21.0412C41.2769 24.0221 39.0746 26.2825 35.164 29.1763C34.5306 29.6469 34.3738 29.8154 34.641 29.7283C34.9141 29.6469 36.3726 28.8857 37.0409 28.4848C39.3826 27.0728 41.5326 25.1087 42.7935 23.2261C43.607 22.0116 44.1765 20.5938 44.3392 19.391C44.4379 18.6472 44.3566 18.5252 44.1242 19.054Z" fill="white"/>
<path d="M14.6285 13.4515C14.9307 14.4044 15.6861 15.3167 16.4996 15.706C16.7378 15.8223 16.9993 15.9443 17.0749 15.9733C17.2027 16.0256 17.1853 16.0431 16.7843 16.2348C15.7732 16.7171 15.076 17.5713 14.7215 18.7741L14.5995 19.2041L14.4716 18.8032C14.245 18.1175 13.9545 17.6294 13.4722 17.1471C13.1119 16.781 12.926 16.6474 12.4553 16.4149L11.8801 16.136L12.2926 15.9443C13.2979 15.4678 14.0998 14.4684 14.3554 13.3585C14.4019 13.1784 14.4484 13.0273 14.4658 13.0273C14.4833 13.0273 14.553 13.219 14.6285 13.4515Z" fill="white"/>
<path d="M54.9855 56.914C54.5255 56.914 54.2495 56.592 54.1575 55.948C55.4148 48.956 57.1322 40.722 59.3095 31.246C61.4562 22.0153 62.8822 15.836 63.5875 12.708C63.7102 12.4013 63.8942 12.1407 64.1395 11.926C64.4155 11.7113 64.6762 11.604 64.9215 11.604C65.4122 11.604 65.6575 11.88 65.6575 12.432C64.9215 16.6027 64.0935 20.574 63.1735 24.346C62.5602 26.9527 61.6708 30.8627 60.5055 36.076L70.1655 25.266C73.9988 21.034 77.7555 16.7407 81.4355 12.386C81.7422 12.1407 82.0642 12.018 82.4015 12.018C82.8922 12.018 83.1375 12.2787 83.1375 12.8C83.1375 13.1373 83.0148 13.444 82.7695 13.72C80.7148 16.1733 77.2342 20.1753 72.3275 25.726C67.2982 31.3993 64.1855 34.9413 62.9895 36.352C63.2655 39.112 63.8482 41.7033 64.7375 44.126C65.6268 46.5487 66.7155 48.6187 68.0035 50.336C69.2915 52.0227 70.6408 53.234 72.0515 53.97C73.1248 54.5833 74.2902 54.89 75.5475 54.89C77.3262 54.89 78.6755 54.2153 79.5955 52.866C79.9022 52.6207 80.1782 52.498 80.4235 52.498C81.0368 52.498 81.3435 52.774 81.3435 53.326C81.3435 53.6633 81.1288 54.0927 80.6995 54.614C80.2702 55.1047 79.7335 55.5647 79.0895 55.994C78.4762 56.3927 77.9242 56.6227 77.4335 56.684C76.6055 56.8373 75.8695 56.914 75.2255 56.914C73.9375 56.914 72.7108 56.6533 71.5455 56.132C70.3802 55.6107 69.2455 54.7673 68.1415 53.602C66.4242 51.8847 64.9675 49.6307 63.7715 46.84C62.5755 44.0493 61.7015 41.1207 61.1495 38.054C60.9962 38.2073 60.7048 38.4987 60.2755 38.928C59.8768 39.3573 59.6008 39.6947 59.4475 39.94C57.8528 47.0547 56.7948 52.2833 56.2735 55.626C56.2122 55.994 56.0435 56.3007 55.7675 56.546C55.5222 56.7913 55.2615 56.914 54.9855 56.914ZM91.3384 58.248C90.8171 58.248 90.5258 57.926 90.4644 57.282C90.8938 53.7247 92.1051 46.9933 94.0984 37.088C96.1224 27.152 97.6864 19.6847 98.7904 14.686C96.2144 14.594 93.9451 14.548 91.9824 14.548C90.2958 14.548 88.7164 14.594 87.2444 14.686C86.6004 14.594 86.2784 14.3333 86.2784 13.904C86.2784 13.0453 87.0604 12.57 88.6244 12.478C88.9004 12.4473 89.3298 12.432 89.9124 12.432L99.3424 12.616C99.7718 11.328 100.354 10.684 101.09 10.684C101.704 10.684 102.01 11.0673 102.01 11.834C102.01 11.9873 101.98 12.248 101.918 12.616C103.39 12.524 105.629 12.4013 108.634 12.248C111.67 12.0947 113.71 12.018 114.752 12.018C115.274 12.1713 115.534 12.432 115.534 12.8C115.534 13.72 114.783 14.18 113.28 14.18C112.054 14.18 109.57 14.272 105.828 14.456C103.62 14.6093 102.01 14.686 100.998 14.686C100.048 19.378 99.0971 23.8707 98.1464 28.164C96.9504 33.6227 95.9384 38.3913 95.1104 42.47C94.3131 46.5487 93.4698 51.3787 92.5804 56.96C92.4884 57.328 92.3198 57.6347 92.0744 57.88C91.8291 58.1253 91.5838 58.248 91.3384 58.248Z" fill="white"/>
</svg>
