<svg width="40" height="40" viewBox="0 0 40 40" fill="none" xmlns="http://www.w3.org/2000/svg">
<rect width="40" height="40" rx="20" fill="#BE3455"/>
<path d="M25.8163 12.403C25.8163 12.403 26.4604 13.0346 25.8163 12.403C24.9529 11.4174 24.4771 10.1516 24.4775 8.84131H20.5747V24.5028C20.5446 25.3503 20.1868 26.1531 19.5766 26.7421C18.9665 27.3311 18.1515 27.6603 17.3035 27.6604C15.51 27.6604 14.0196 26.1953 14.0196 24.3765C14.0196 22.2041 16.1162 20.5748 18.276 21.2442V17.2531C13.9186 16.6721 10.1042 20.057 10.1042 24.3765C10.1042 28.5824 13.5902 31.5758 17.2909 31.5758C21.2568 31.5758 24.4775 28.355 24.4775 24.3765V16.4321C26.06 17.5686 27.9601 18.1784 29.9085 18.1751V14.2723C29.9085 14.2723 27.534 14.386 25.8163 12.403Z" fill="#F9EBEE"/>
</svg>
