<svg width="40" height="40" viewBox="0 0 40 40" fill="none" xmlns="http://www.w3.org/2000/svg">
<rect width="40" height="40" rx="10" fill="#BE3455"/>
<path d="M10.4933 25.3816C10.1644 25.0527 10 24.6342 10 24.126C10 23.6178 10.1644 23.1992 10.4933 22.8704L18.7444 14.6192C18.9238 14.4399 19.1181 14.3125 19.3274 14.2372C19.5366 14.163 19.7608 14.126 20 14.126C20.2392 14.126 20.4711 14.1708 20.696 14.2605C20.9196 14.3502 21.1061 14.4698 21.2556 14.6192L29.5067 22.8704C29.8356 23.1992 30 23.6178 30 24.126C30 24.6342 29.8356 25.0527 29.5067 25.3816C29.1779 25.7104 28.7593 25.8749 28.2511 25.8749C27.7429 25.8749 27.3244 25.7104 26.9955 25.3816L20 18.3861L13.0045 25.3816C12.6756 25.7104 12.2571 25.8749 11.7489 25.8749C11.2407 25.8749 10.8221 25.7104 10.4933 25.3816Z" fill="#F9EBEE"/>
</svg>
